<?xml version="1.0" encoding="utf-8"?>
<!DOCTYPE svg PUBLIC "-//W3C//DTD SVG 1.0//EN" "http://www.w3.org/TR/2001/REC-SVG-20010904/DTD/svg10.dtd">
<svg version="1.0" xmlns="http://www.w3.org/2000/svg" width="142px" height="96px" viewBox="0 0 142 96" preserveAspectRatio="xMidYMid meet">
 <g fill="currentColor">
  <path d="M27.15 88.25 c-3.50 -1.50 -4.10 -6.45 -1.10 -8.95 l1.55 -1.30 45.45 0 c48.90 0 47.60 -0.05 48.95 2.45 1 1.95 0.60 4.90 -0.95 6.65 l-1.45 1.65 -45.45 0.10 c-38.30 0.10 -45.65 0 -47 -0.60z"/>
  <path d="M53.65 72 c-4.05 -0.85 -8.30 -3.65 -10.40 -7 -2.60 -4.15 -2.75 -5.55 -2.75 -27.80 0 -12.20 0.20 -21.15 0.50 -21.90 0.25 -0.70 1.20 -1.75 2.10 -2.30 1.60 -0.95 2.55 -1 35.40 -1 19 0 35 0.20 36.65 0.50 16.30 2.65 23.90 21.55 13.90 34.65 -4.25 5.60 -9.45 8.15 -17.70 8.75 l-5.10 0.35 -0.35 2.40 c-0.90 6.50 -6.45 12.10 -13.10 13.30 -3.50 0.65 -35.95 0.65 -39.15 0.05z m61.05 -27.55 c4.70 -1.20 7.80 -5.45 7.80 -10.80 0 -6.30 -5.05 -10.65 -12.30 -10.65 l-3.65 0 -0.15 10.80 c-0.10 5.95 -0.05 10.90 0.05 11 0.45 0.40 6.20 0.20 8.25 -0.35z"/>
 </g>
</svg>